# xmcd
#
# Track frame offsets:
# 150
# 16477
# 32403
# 58763
# 79999
# 101107
# 119289
# 128707
# 150487
# 165996
# 191179
# 213520
#
# Disc length: 4380 seconds
#
# Revision: 0
# Processed by: cddbd v1.5.2PL0 Copyright (c) Steve Scherf et al.
# Submitted via: Audion 3.0.2 (http://www.panic.com/audion/)
#
DISCID=9c111a0c
DTITLE=Mahalia Barnes - Mahalia Barnes and The Soulmates
DYEAR=1900
DGENRE=
TTITLE0=01. How Strong (Is A Woman)
TTITLE1=02. It's A Shame
TTITLE2=03. Good Friend
TTITLE3=04. Proud Mary
TTITLE4=05. We're Still Friends
TTITLE5=06. I'm Just Not Ready For Love
TTITLE6=07. So Fine
TTITLE7=08. Is This A Love
TTITLE8=09. Steppin' In Her I Miller Shoes
TTITLE9=10. Wasted
TTITLE10=11. You Are My Sunshine
TTITLE11=12. Never Walk Away
EXTD=
EXTT0=
EXTT1=
EXTT2=
EXTT3=
EXTT4=
EXTT5=
EXTT6=
EXTT7=
EXTT8=
EXTT9=
EXTT10=
EXTT11=
PLAYORDER=
